<?xml version="1.0" standalone="no"?><!DOCTYPE svg PUBLIC "-//W3C//DTD SVG 1.1//EN" "http://www.w3.org/Graphics/SVG/1.1/DTD/svg11.dtd"><svg t="1725521015179" class="icon" viewBox="0 0 1024 1024" version="1.1" xmlns="http://www.w3.org/2000/svg" p-id="8894" xmlns:xlink="http://www.w3.org/1999/xlink" width="200" height="200"><path d="M574.171429 109.714286l438.857142 746.057143c21.942857 36.571429 7.314286 80.457143-25.6 98.742857-10.971429 7.314286-25.6 10.971429-36.571428 10.971428H73.142857c-40.228571 0-73.142857-32.914286-73.142857-73.142857 0-14.628571 3.657143-25.6 10.971429-36.571428L449.828571 109.714286c21.942857-36.571429 65.828571-47.542857 98.742858-25.6 10.971429 7.314286 21.942857 14.628571 25.6 25.6z" fill="#F9C014" p-id="8895"></path><path d="M512 687.542857c-14.628571 0-25.6-10.971429-25.6-25.6 0 0-58.514286-245.028571-58.514286-270.628571 0-43.885714 40.228571-84.114286 87.771429-84.114286 47.542857 0 87.771429 36.571429 87.771428 84.114286 0 18.285714-51.2 259.657143-58.514285 270.628571-7.314286 14.628571-18.285714 25.6-32.914286 25.6zM453.485714 804.571429c0 32.914286 25.6 58.514286 58.514286 58.514285 32.914286 0 58.514286-25.6 58.514286-58.514285 0-32.914286-25.6-58.514286-58.514286-58.514286-14.628571 0-29.257143 7.314286-40.228571 18.285714-14.628571 10.971429-18.285714 25.6-18.285715 40.228572z" fill="#FFFFFF" p-id="8896"></path></svg>